HIERARCHY
ROOT Hips
{
    OFFSET 0.0 0.0 0.0
    CHANNELS 6 Xposition Yposition Zposition Zrotation Xrotation Yrotation
    JOINT LeftHipJoint
    {
        OFFSET 0.1 0.0 0.0
        CHANNELS 3 Zrotation Xrotation Yrotation
        JOINT LeftUpLeg
        {
            OFFSET 125.06269206364038 0.0 0.0
            CHANNELS 3 Zrotation Xrotation Yrotation
            JOINT LeftLeg
            {
                OFFSET 0.0 0.0 -419.74427832711535
                CHANNELS 3 Zrotation Xrotation Yrotation
                JOINT LeftFoot
                {
                    OFFSET 0.0 0.0 -398.2487780131001
                    CHANNELS 3 Zrotation Xrotation Yrotation
                    End Site
                    {
                        OFFSET 0.0 -0.1 0.0
                    }
                }
            }
        }
    }
    JOINT LowerBack
    {
        OFFSET 0.0 0.0 0.1
        CHANNELS 3 Zrotation Xrotation Yrotation
        JOINT Spine
        {
            OFFSET 0.0 0.0 218.2986588881985
            CHANNELS 3 Zrotation Xrotation Yrotation
            JOINT Spine1
            {
                OFFSET 0.0 0.0 251.0236080617692
                CHANNELS 3 Zrotation Xrotation Yrotation
                JOINT LeftShoulder
                {
                    OFFSET 0.1 0.0 0.0
                    CHANNELS 3 Zrotation Xrotation Yrotation
                    JOINT LeftArm
                    {
                        OFFSET 142.8379121433321 0.0 0.0
                        CHANNELS 3 Zrotation Xrotation Yrotation
                        JOINT LeftForeArm
                        {
                            OFFSET 271.2595495052841 0.0 0.0
                            CHANNELS 3 Zrotation Xrotation Yrotation
                            JOINT LeftHand
                            {
                                OFFSET 232.82943068501552 0.0 0.0
                                CHANNELS 3 Zrotation Xrotation Yrotation
                                End Site
                                {
                                    OFFSET 0.1 0.0 0.0
                                }
                            }
                        }
                    }
                }
                JOINT Neck
                {
                    OFFSET 0.0 0.0 0.1
                    CHANNELS 3 Zrotation Xrotation Yrotation
                    JOINT Neck1
                    {
                        OFFSET 0.0 0.0 108.0808209106224
                        CHANNELS 3 Zrotation Xrotation Yrotation
                        End Site
                        {
                            OFFSET 0.0 0.0 111.41915754417512
                        }
                    }
                }
                JOINT RightShoulder
                {
                    OFFSET -0.1 0.0 0.0
                    CHANNELS 3 Zrotation Xrotation Yrotation
                    JOINT RightArm
                    {
                        OFFSET -142.8379121433321 0.0 0.0
                        CHANNELS 3 Zrotation Xrotation Yrotation
                        JOINT RightForeArm
                        {
                            OFFSET -271.2595495052841 0.0 0.0
                            CHANNELS 3 Zrotation Xrotation Yrotation
                            JOINT RightHand
                            {
                                OFFSET -232.82943068501552 0.0 0.0
                                CHANNELS 3 Zrotation Xrotation Yrotation
                                End Site
                                {
                                    OFFSET -0.1 0.0 0.0
                                }
                            }
                        }
                    }
                }
            }
        }
    }
    JOINT RightHipJoint
    {
        OFFSET -0.1 0.0 0.0
        CHANNELS 3 Zrotation Xrotation Yrotation
        JOINT RightUpLeg
        {
            OFFSET -125.06269206364038 0.0 0.0
            CHANNELS 3 Zrotation Xrotation Yrotation
            JOINT RightLeg
            {
                OFFSET 0.0 0.0 -419.74427832711535
                CHANNELS 3 Zrotation Xrotation Yrotation
                JOINT RightFoot
                {
                    OFFSET 0.0 0.0 -398.2487780131001
                    CHANNELS 3 Zrotation Xrotation Yrotation
                    End Site
                    {
                        OFFSET 0.0 -0.1 0.0
                    }
                }
            }
        }
    }
}
MOTION
Frames: 7
Frame Time: 0.03333333333333333
0.0 0.0 814.3659411573808 23.275449945339076 7.402933098800094 2.6987423453515924 0.0 0.0 0.0 -0.8285825364382121 -18.472478580729547 2.660566285162441 2.500408702429923 25.271980187456 -1.8657907600744923 0.0 0.0 -7.951386703658792e-16 0.0 0.0 0.0 -0.09214551451433464 -2.1205634185712214 0.9569149050914498 -0.6558728769411678 6.020329940674651e-16 -9.904938023104954e-16 3.1805546814635164e-15 -1.9878466759146977e-16 -9.939233379573487e-17 -59.7882913815245 49.618762482958246 90.50606610009268 -81.16591330453397 2.4155194989841877e-15 2.06910454830264e-15 0.0 0.0 -2.9817700138720468e-15 3.1805546814635164e-15 -1.9878466759146977e-16 -9.939233379573487e-17 -0.6308125553139133 -14.945522611372006 -3.271917265374929 3.1805546814635164e-15 -1.9878466759146977e-16 -9.939233379573487e-17 58.939228010933896 48.52978057121221 -93.18626040394233 90.6014984875906 -1.3564595095053538e-14 -1.3422934509685699e-14 0.0 0.0 0.0 0.0 0.0 0.0 -0.8428182560272004 -18.651913202608696 -1.049959956226923 0.8492489704087937 28.2805177914874 -0.9294029878750407 0.0 0.0 -3.975693351829396e-16
0.0 0.0 814.3659411573808 23.184272989238217 7.415311958455885 2.7693562604429465 -1.7241821476758432e-34 -9.93923337957349e-17 -1.987846675914698e-16 -0.8473748171493841 -18.51178509715891 2.5236014307321137 2.4763175261151957 25.411833985189144 -1.789973110494341 6.896728590703373e-34 -1.987846675914698e-16 3.975693351829396e-16 -1.7241821476758432e-34 -9.93923337957349e-17 -1.987846675914698e-16 -0.0985577111836074 -2.222982823027594 0.8658442617801215 -0.6766405365026696 2.0171564562567933e-16 -4.957792278961839e-16 0.0 0.0 -2.981770013872047e-16 -58.653499685289816 49.583956501505895 89.60775995972453 -81.61443125190715 -6.235629471406051e-15 7.222207268650475e-15 3.1805546814635168e-15 -6.3611093629270335e-15 -1.7890620083232284e-15 0.0 0.0 -2.981770013872047e-16 -0.5545715542057664 -14.98799862226024 -3.231179646951334 0.0 0.0 -2.981770013872047e-16 58.57569740446669 48.715262904157086 -92.85848151230222 90.92104781215137 -6.7648338432886144e-15 -2.1946898372194773e-15 -3.1805546814635176e-15 -8.827812596100317e-32 3.1805546814635176e-15 -1.7241821476758432e-34 -9.93923337957349e-17 -1.987846675914698e-16 -0.8581408922574475 -18.617740307956453 -1.1459415125886439 0.8263095860717707 28.293218903401545 -0.8331264810224923 0.0 -1.9878466759146977e-16 0.0
0.0 0.0 814.3659411573808 23.09374218962106 7.3353838874552615 2.888868966381154 0.0 0.0 0.0 -0.8769668707466987 -18.48618569168651 2.3448751502964487 2.4515783182712703 25.544535284162794 -1.6979156251966325 0.0 0.0 0.0 0.0 0.0 0.0 -0.10144010945397589 -2.207808231863757 0.7564637911079384 -0.6746380839583405 2.0463274140764716e-16 -9.927358092411698e-16 0.0 0.0 -9.93923337957349e-17 -57.700751640832486 49.47461337876403 88.83468057377587 -82.01338832787073 -8.034408981751007e-15 1.4087668452949393e-14 0.0 0.0 -2.4848083448933726e-15 0.0 0.0 -9.93923337957349e-17 -0.3824276318879404 -15.120087456861803 -3.157211193026721 0.0 0.0 -9.93923337957349e-17 58.26215341294937 48.748988857037816 -92.51491123160187 91.24029214906534 4.546403482500868e-15 4.449036716124283e-15 -3.1805546814635168e-15 0.0 0.0 0.0 0.0 0.0 -0.8826455920185968 -18.489547968750614 -1.3359163732647212 0.7716015746957268 28.18335904495313 -0.7083001869265637 0.0 0.0 3.975693351829396e-16
0.0 0.0 814.3659411573808 23.023953408265662 7.32872912491036 2.950450000585839 0.0 0.0 -1.987846675914698e-16 -0.8839818853885216 -18.546598451426025 2.2965355573507313 2.464348691387955 25.814590053888583 -1.7305938332411657 0.0 0.0 -3.975693351829396e-16 0.0 0.0 -1.987846675914698e-16 -0.09992264530835737 -2.1650571901018827 0.6241095297735775 -0.7309044248799866 -6.925624128292571e-16 -5.013892396342026e-16 0.0 0.0 2.981770013872047e-16 -56.99704388708867 49.28842668502089 88.24802345323697 -82.23056316689089 -7.188575518879314e-15 -6.274371262954116e-15 0.0 0.0 -1.1927080055488188e-15 0.0 0.0 2.981770013872047e-16 -0.1873185132029083 -15.410702815678004 -3.0996278907919512 0.0 0.0 2.981770013872047e-16 57.98075386081784 48.80657297569305 -92.26127489100264 91.1869363876471 9.088662886521018e-15 8.902306231738343e-15 0.0 0.0 0.0 0.0 0.0 -1.987846675914698e-16 -0.8867373737767478 -18.49097180650621 -1.4166243743325244 0.73727185385027 28.255919459289036 -0.5820469764077734 0.0 0.0 0.0
0.0 0.0 814.3659411573808 22.9128108190356 7.344712859828504 3.033375584883201 0.0 0.0 1.987846675914698e-16 -0.9020557302456356 -18.65269876002649 2.223620887792015 2.4663178622585034 25.97504847582114 -1.7489294451485373 0.0 0.0 0.0 0.0 0.0 1.987846675914698e-16 -0.09359259751353508 -1.9998096096844309 0.5131504588575134 -0.8187090184777895 -1.6768445550032166e-15 -1.8010882313200137e-15 8.620910738379216e-35 -9.93923337957349e-17 9.93923337957349e-17 -56.55988219992864 48.992357688591746 87.82395530609284 -82.39366054438538 1.047432725729834e-14 -1.196606328545459e-14 -3.1805546814635168e-15 -5.241513728934563e-32 1.888454342118963e-15 8.620910738379216e-35 -9.93923337957349e-17 9.93923337957349e-17 -0.0781198003662429 -15.660118237839686 -3.2195960251571583 8.620910738379216e-35 -9.93923337957349e-17 9.93923337957349e-17 57.89136083966885 48.87629346882707 -92.13274231061442 91.29657359345221 -4.446803221458796e-15 4.5485880706810145e-15 3.1805546814635168e-15 0.0 0.0 0.0 0.0 1.987846675914698e-16 -0.9043305131389568 -18.589705516556986 -1.5144434321054008 0.7135654293615059 28.488528701220684 -0.4459127243364164 -4.4139062980501586e-32 -3.1805546814635168e-15 -1.5902773407317584e-15
0.0 0.0 814.3659411573808 22.95377750682238 7.367937161438308 3.041139433520983 0.0 0.0 -1.987846675914698e-16 -0.9030296534400352 -18.703021004388816 2.253886732998294 2.481883015996282 25.99990641455966 -1.77351233341759 3.1805546814635168e-15 0.0 0.0 0.0 0.0 -1.987846675914698e-16 -0.08854274531446178 -1.8953120876764118 0.4921070299147148 -0.9195185713731356 1.0924829261932358e-15 1.0816214723518377e-16 0.0 -9.93923337957349e-17 0.0 -56.35310223669061 48.77893313600642 87.57292026148055 -82.3349506558515 1.3764420582772075e-14 3.5859848934637634e-15 0.0 0.0 2.683593012484842e-15 0.0 -9.93923337957349e-17 0.0 -0.07664725347666548 -15.951999555407008 -3.3350046108100675 0.0 -9.93923337957349e-17 0.0 57.88756675212698 48.901384722474106 -92.20784994381155 91.1175635951733 -9.08327183798448e-15 -8.907806802224099e-15 0.0 -6.361109362927035e-15 0.0 0.0 0.0 -1.987846675914698e-16 -0.9057461601962818 -18.646234265702663 -1.5016573816467018 0.7254415648118566 28.724992497345358 -0.37540632486495634 -3.1805546814635168e-15 -2.2069531490250793e-32 7.951386703658792e-16
0.0 0.0 814.3659411573808 22.854167162497728 7.379526515449404 3.079405965430574 3.1805546814635164e-15 1.1034765745125397e-32 3.9756933518293955e-16 -0.9331431575951016 -18.785359135561333 2.210025432631112 2.5140181452345227 26.12271564066689 -1.721641037567997 3.1805546814635164e-15 0.0 0.0 3.1805546814635164e-15 1.1034765745125397e-32 3.9756933518293955e-16 -0.08988280094134582 -1.8708660153369754 0.45618189328123326 -0.8892845300765457 -1.2766349585538394e-15 -1.997814024497191e-15 0.0 0.0 -3.975693351829396e-16 -56.04206157489665 48.72251340403085 87.31725921018477 -82.16417322388888 8.607297876490044e-16 -2.0347289637335302e-14 -3.1805546814635168e-15 6.3611093629270335e-15 4.969616689786745e-15 0.0 0.0 -3.975693351829396e-16 -0.0730249629595353 -16.00935476347971 -3.438568278727367 0.0 0.0 -3.975693351829396e-16 57.94679695165659 48.97553115862077 -92.22336712394133 91.18044372747244 -2.7079138123031792e-14 -8.717483871859236e-15 0.0 0.0 9.541664044390547e-15 3.1805546814635164e-15 1.1034765745125397e-32 3.9756933518293955e-16 -0.9399660368656662 -18.80550408609015 -1.5436609468546467 0.7531298459556565 28.8960824190132 -0.3357113904296286 3.310429723537619e-32 -3.1805546814635168e-15 1.1927080055488188e-15
